<!-- <svg width="30" height="30" viewBox="0 0 30 30" fill="none" xmlns="http://www.w3.org/2000/svg">
<path fill-rule="evenodd" clip-rule="evenodd" d="M27.8333 15C27.8333 22.0877 22.0877 27.8333 15 27.8333C7.91234 27.8333 2.16666 22.0877 2.16666 15C2.16666 7.91234 7.91234 2.16666 15 2.16666C22.0877 2.16666 27.8333 7.91234 27.8333 15ZM30 15C30 23.2843 23.2843 30 15 30C6.71573 30 0 23.2843 0 15C0 6.71573 6.71573 0 15 0C23.2843 0 30 6.71573 30 15ZM23.2759 8.27591C23.2759 9.1329 22.5812 9.82763 21.7242 9.82763C20.8672 9.82763 20.1725 9.1329 20.1725 8.27591C20.1725 7.41891 20.8672 6.72418 21.7242 6.72418C22.5812 6.72418 23.2759 7.41891 23.2759 8.27591ZM15.1642 12.8396L15.3542 10.3423L15.5185 8.18184C14.7802 8.12567 14.0418 8.19007 13.3314 8.36882C12.7443 8.51654 12.1763 8.74235 11.6432 9.04275C10.4649 9.70664 9.51004 10.705 8.89922 11.9116C8.2884 13.1182 8.04909 14.4788 8.21156 15.8214C8.37403 17.164 8.93098 18.4283 9.81197 19.4544C10.693 20.4805 11.8585 21.2222 13.161 21.5859C14.4636 21.9496 15.8448 21.9189 17.1299 21.4976C18.415 21.0763 19.5463 20.2834 20.3808 19.2192C20.7584 18.7376 21.0675 18.2103 21.3023 17.6523C21.5864 16.9774 21.7617 16.2576 21.8179 15.5196L21.818 15.5186L19.6576 15.3543L17.1603 15.1643L14.9999 15L15.1642 12.8396ZM18.9619 17.4743L14.8355 17.1604L12.6751 16.996L12.8395 14.8356L13.1534 10.7092C13.0012 10.7747 12.8521 10.8485 12.7068 10.9304C11.9019 11.3839 11.2496 12.0659 10.8323 12.8902C10.415 13.7145 10.2515 14.644 10.3625 15.5611C10.4735 16.4783 10.854 17.342 11.4558 18.0429C12.0577 18.7439 12.8539 19.2506 13.7437 19.4991C14.6335 19.7475 15.5771 19.7265 16.455 19.4387C17.3329 19.151 18.1057 18.6093 18.6758 17.8823C18.7787 17.751 18.8742 17.6148 18.9619 17.4743Z" fill="url(#paint0_linear_883_4378)"/>
<defs>
<linearGradient id="paint0_linear_883_4378" x1="15" y1="0" x2="15" y2="30" gradientUnits="userSpaceOnUse">
<stop stop-color="#DD7EFF"/>
<stop offset="0.461458" stop-color="#685DFF"/>
<stop offset="1" stop-color="#2152FF"/>
</linearGradient>
</defs>
</svg> -->
<svg xmlns="http://www.w3.org/2000/svg" xmlns:xlink="http://www.w3.org/1999/xlink" version="1.1" width="64px" height="64px" style="shape-rendering:geometricPrecision; text-rendering:geometricPrecision; image-rendering:optimizeQuality; fill-rule:evenodd; clip-rule:evenodd">
<g><path style="opacity:0.885" fill="#877dfe" d="M 27.5,2.5 C 37.33,0.82919 41.1634,4.82919 39,14.5C 38.3333,16.5 37,17.8333 35,18.5C 34.5172,19.448 34.3505,20.448 34.5,21.5C 37.8806,21.5405 41.2139,21.2071 44.5,20.5C 44.5,22.5 44.5,24.5 44.5,26.5C 41.2139,25.7929 37.8806,25.4595 34.5,25.5C 34.5,34.5 34.5,43.5 34.5,52.5C 40.7171,51.3081 46.2171,48.6414 51,44.5C 53.0436,42.2521 52.8769,40.2521 50.5,38.5C 51.7061,35.9206 53.0394,33.4206 54.5,31C 55.4491,30.3828 56.2825,30.5494 57,31.5C 58.1667,33.8333 59.3333,36.1667 60.5,38.5C 59.675,39.3857 58.675,39.719 57.5,39.5C 57.9177,45.406 55.5844,49.906 50.5,53C 44.1667,56.1667 37.8333,59.3333 31.5,62.5C 24.9937,59.2789 18.6604,55.7789 12.5,52C 8.75177,48.6696 7.0851,44.503 7.5,39.5C 6.32496,39.719 5.32496,39.3857 4.5,38.5C 5.66667,36.1667 6.83333,33.8333 8,31.5C 8.71752,30.5494 9.55085,30.3828 10.5,31C 11.9606,33.4206 13.2939,35.9206 14.5,38.5C 12.1231,40.2521 11.9564,42.2521 14,44.5C 17.7896,48.3135 22.2896,50.9802 27.5,52.5C 28.4982,43.5246 28.8315,34.5246 28.5,25.5C 25.1194,25.4595 21.7861,25.7929 18.5,26.5C 18.5,24.5 18.5,22.5 18.5,20.5C 21.7861,21.2071 25.1194,21.5405 28.5,21.5C 28.6495,20.448 28.4828,19.448 28,18.5C 23.7827,15.617 22.4494,11.617 24,6.5C 24.6897,4.64977 25.8564,3.31643 27.5,2.5 Z M 29.5,7.5 C 34.1585,7.01463 35.4919,8.84796 33.5,13C 28.7282,13.8104 27.3948,11.9771 29.5,7.5 Z"/></g>
</svg>